<svg width="18" height="17" viewBox="0 0 18 17" fill="none" xmlns="http://www.w3.org/2000/svg">
<path d="M15.3353 14.4868H12.6698V10.5421C12.6698 9.60146 12.6495 8.39092 11.2808 8.39092C9.891 8.39092 9.67875 9.41446 9.67875 10.4727V14.4868H7.01325V6.375H9.57375V7.48071H9.60825C9.966 6.84321 10.836 6.17029 12.1357 6.17029C14.8365 6.17029 15.336 7.84904 15.336 10.0343V14.4868H15.3353ZM4.00275 5.26504C3.14475 5.26504 2.4555 4.60913 2.4555 3.80233C2.4555 2.99625 3.1455 2.34104 4.00275 2.34104C4.85775 2.34104 5.55075 2.99625 5.55075 3.80233C5.55075 4.60913 4.857 5.26504 4.00275 5.26504ZM5.33925 14.4868H2.66625V6.375H5.33925V14.4868ZM16.6688 0H1.32825C0.594 0 0 0.54825 0 1.22471V15.7753C0 16.4525 0.594 17 1.32825 17H16.6665C17.4 17 18 16.4525 18 15.7753V1.22471C18 0.54825 17.4 0 16.6665 0H16.6688Z" fill="white"/>
</svg>
