<svg width="172" height="84" viewBox="0 0 172 84" fill="none" xmlns="http://www.w3.org/2000/svg">
<path d="M0 31.1111V56L44 24.8889V3.8147e-06L0 31.1111Z" fill="#2F80ED"/>
<path d="M0 55.1111V32L44 60.8889V84L0 55.1111Z" fill="#3600A9"/>
<path d="M84 31.1111V56L44 24.8889V3.8147e-06L84 31.1111Z" fill="#3600A9"/>
<path d="M84 55.1111V32L44 60.8889V84L84 55.1111Z" fill="#2F80ED"/>
<path d="M172 31.1111L172 56L128 24.8889L128 3.78592e-06L172 31.1111Z" fill="#3600A9"/>
<path d="M172 55.1111L172 32L128 60.8889L128 84L172 55.1111Z" fill="#2F80ED"/>
<path d="M84 55.1111L84 32L128 60.8889L128 84L84 55.1111Z" fill="#3600A9"/>
<path d="M84 31.1111L84 56L128 24.8889L128 3.84347e-06L84 31.1111Z" fill="#2F80ED"/>
</svg>
